# xmcd CD database file
#
# Track frame offsets:
#	150
#	46507
#	68420
#	87375
#	106552
#	127160
#	148462
#	166737
#	190500
#
# Disc length: 2849 seconds
#
# Revision: 0
# Processed by: cddbd v1.5.2PL0 Copyright (c) Steve Scherf et al.
# Submitted via: CDex 1.70beta2
#
DISCID=6d0b1f09
DTITLE=IRMA Records - Tito Valdez - Sabor Y Salta Volume 2
DYEAR=1900
DGENRE=Salsa
TTITLE0=Medley - Raulin Rosendo
TTITLE1=Pensieri e parole - Victor Manuelle
TTITLE2=Medley exitos - Orquesta Mulenze
TTITLE3=El gran fieston - Cocoband
TTITLE4=Nada sin ti - Jerry Rivera
TTITLE5=Si no bailas conmigo - Hansel Martinez
TTITLE6=Yay boy - Africando
TTITLE7=Solo tu - Luisito Carrion
TTITLE8=Hablando sola - Trina Medina
EXTD=
EXTT0=
EXTT1=
EXTT2=
EXTT3=
EXTT4=
EXTT5=
EXTT6=
EXTT7=
EXTT8=
PLAYORDER=
